# xmcd
#
# Track frame offsets:
#	150
#	17147
#	32537
#	48127
#	63397
#	78367
#	91120
#	104962
#	122775
#	132847
#	146740
#	166812
#
# Disc length: 2419 seconds
#
# Revision: 1
# Processed by: cddbd v1.5.1PL0 Copyright (c) Steve Scherf et al.
# Submitted via: audiograbber 1.83.01
#
DISCID=9b09710c
DTITLE=Various Artist - SDP006
DYEAR=1900
DGENRE=Karaoke
TTITLE0=The Tractors - Baby Likes To Rock It
TTITLE1=Brooks and Dunn - I'll Never Forgive My Heart
TTITLE2=Randy Travis - This Is Me
TTITLE3=Martina McBride - Heart Trouble
TTITLE4=Collin Raye - Man Of My Word
TTITLE5=Ken Mellons - Jukebox Junkie
TTITLE6=John Anderson - Country Til I Die
TTITLE7=John Berry - You and Only You
TTITLE8=George Strait - The Big One
TTITLE9=Confederate Railroad - Summer In Dixie
TTITLE10=Tanya Tucker - You Just Watch Me
TTITLE11=Alabama - We Can't Love Like This Anymore
EXTD=
EXTT0=
EXTT1=
EXTT2=
EXTT3=
EXTT4=
EXTT5=
EXTT6=
EXTT7=
EXTT8=
EXTT9=
EXTT10=
EXTT11=
PLAYORDER=
